<svg id="Layer_1" data-name="Layer 1" xmlns="http://www.w3.org/2000/svg" viewBox="0 0 299.37 52.86"><defs><style>.cls-1,.cls-2,.cls-8,.cls-9{fill:#2e3f50;}.cls-1{fill-rule:evenodd;}.cls-3,.cls-4{fill:#3c91cf;}.cls-4{font-size:33.75px;font-family:AbrilFatface-Regular, Abril Fatface;}.cls-5{letter-spacing:0em;}.cls-6{letter-spacing:-0.06em;}.cls-7{letter-spacing:-0.03em;}.cls-8{letter-spacing:-0.03em;}.cls-9{letter-spacing:-0.01em;}</style></defs><path class="cls-1" d="M44.48,37.38c-.37-1.43-.69-1.87-.88-2.84V33.11c1-.74.32-2.41,2.63-3.12,2-.61,4.14.65,6.16.75a7.45,7.45,0,0,0,1.58,0l-4.19,8.59h-.17a.24.24,0,1,0,0,.47h.3c.09.54,1.63,2,4.11,2.05s4.34-1.16,4.49-2.05h.32a.24.24,0,1,0,0-.47h-.2l-4.2-8.71.12,0a2.06,2.06,0,0,0,1.13-1.07c-3.16,1.83-6.22-2.06-9.3-1.49a5.59,5.59,0,0,0-2.78,1.48V28.27a1.17,1.17,0,0,0,.61-1.46c-.22-.94-1.07-1.43-1.3-3.28-.23,1.85-1.09,2.34-1.3,3.28-.18.78.21,1.41.65,1.47v1.19A5.64,5.64,0,0,0,39.47,28c-3.08-.57-6.14,3.32-9.3,1.49a2.07,2.07,0,0,0,1.2,1.1h.06l-4.25,8.71H27a.24.24,0,1,0,0,.47h.3c.1.54,1.63,2,4.11,2.05s4.34-1.16,4.5-2.05h.32a.24.24,0,1,0,0-.47H36L31.9,30.7a7.28,7.28,0,0,0,1.56,0c2-.1,4.17-1.36,6.16-.75,2.32.72,1.64,2.39,2.64,3.13v1.52a26.81,26.81,0,0,1-.88,2.74,1.38,1.38,0,0,0,.72,1.72c-.24.07-.39.15-.39.29s.27.29.67.36a1.68,1.68,0,0,0-.51,1.72,9.9,9.9,0,0,0,.39,1.45v1.93h-.07c-.44,0,0,4.48-1.77,4.48a.24.24,0,0,0-.24.24H38.72a.69.69,0,0,0-.66.49h-.54c-.51,0-.94.31-.94.69h12.7c0-.38-.42-.69-.94-.69H47.8a.69.69,0,0,0-.66-.49H45.68a.24.24,0,0,0-.24-.24c-1.79,0-1.32-4.48-1.77-4.48H43.6V42.92A9.9,9.9,0,0,0,44,41.47a1.68,1.68,0,0,0-.51-1.72c.4-.07.67-.21.67-.36s-.15-.22-.39-.29a1.41,1.41,0,0,0,.72-1.72Zm9.6-6.7h0v.53l-3.95,8.08h3.95V30.68Zm.31-.09h0v.62l3.89,8.08H54.39v-8.7Zm-22.91,0h0v.61l-3.94,8.08h3.94V30.6Zm.31.08h0v.53l3.9,8.08h-3.9V30.68Z" transform="translate(-7.27 -9.59)"/><path class="cls-2" d="M76.73,58.4s-19.86-7.93-34.21,3.41a57.18,57.18,0,0,1,35.24.64Z" transform="translate(-7.27 -9.59)"/><path class="cls-3" d="M75.27,56.07l-2.58-4.62C52.83,47.62,43,60.65,43,60.65A37.5,37.5,0,0,1,75.27,56.07Z" transform="translate(-7.27 -9.59)"/><path class="cls-2" d="M8.3,58.4l-1,4.05a57.21,57.21,0,0,1,35.25-.64C28.16,50.47,8.3,58.4,8.3,58.4Z" transform="translate(-7.27 -9.59)"/><path class="cls-3" d="M42.06,60.65s-9.86-13-29.72-9.2L9.76,56.07A37.5,37.5,0,0,1,42.06,60.65Z" transform="translate(-7.27 -9.59)"/><path class="cls-2" d="M63.55,42.61c.53-1.56,1-3.16,1.39-4.75.28-1.07.49-2.15.68-3.24s.33-2.14.44-3.22.24-2.45.32-3.68c.08-1,.12-2.11.16-3.16h0l.19-4.28c0-.86.11-1.81.08-2.75,0-.77-.48-1-1.11-1.09-1.6-.27-3.22-.47-4.81-.76-1.3-.23-2.59-.53-3.87-.85-1-.24-2-.54-2.93-.84-.68-.2-1.35-.41-2-.66-1.21-.45-2.42-.89-3.59-1.41-1.45-.63-2.88-1.29-4.29-2a2.37,2.37,0,0,0-2.15-.1c-1.15.52-2.28,1.08-3.43,1.6l-8.68,3.17c-.8.23-1.6.45-2.41.63-1.36.32-2.74.52-4.12.76s-2.73.44-4.1.66c-.2,0-.3.11-.28.35,0,.72.07,1.46.11,2.18.13,2.68.27,5.36.38,8a55.09,55.09,0,0,0,.58,6.16c.16,1,.34,2,.55,2.95s.42,1.8.66,2.7.51,1.74.79,2.7l.3.78c.13.36.27.73.42,1.08s.21.5.32.76v0h0l.27.63a31.69,31.69,0,0,1,3.39.69c-.42-.88-.82-1.77-1.18-2.67a53.6,53.6,0,0,1-1.78-5.67c0-.2-.09-.41-.12-.61-.31-1.67-.65-3.34-.81-5-.22-2.45-.29-4.92-.43-7.38,0-.35,0-.71-.06-1.06s-.07-.46-.08-.69,0-.43,0-.64c0-.71-.08-1.42-.13-2.13,0-.18.06-.26.24-.28l.77-.11c1.64-.28,3.27-.54,4.9-.85,1.27-.25,2.55-.51,3.8-.86a36.21,36.21,0,0,0,3.93-1.31c2-.85,4.06-1.79,6.08-2.7a2,2,0,0,1,1.66-.17c1.47.66,2.91,1.41,4.39,2a45.1,45.1,0,0,0,4.29,1.58c1.75.54,3.53,1,5.31,1.38,1,.24,2,.38,3,.54.62.1,1.24.17,1.86.26.82.12,1.11.46,1.1,1.3l0,1a1.93,1.93,0,0,0,0,.24c0,.34,0,.68,0,1h0l-.14,3.33h0c-.05,1.07-.1,2.14-.16,3.21,0,.86-.11,1.73-.22,2.58-.2,1.48-.42,2.95-.7,4.41-.23,1.2-.53,2.38-.87,3.55a26.16,26.16,0,0,1-1,2.94c-.35.86-.74,1.7-1.13,2.55a30.24,30.24,0,0,1,3.41-.58C63,44.1,63.29,43.37,63.55,42.61Z" transform="translate(-7.27 -9.59)"/><path class="cls-3" d="M66.85,45.87a36.71,36.71,0,0,0-4.18.23,32.74,32.74,0,0,0-3.41.57C46.31,49.61,43,59.58,43,59.58c8-12,27.33-9.79,27.33-9.79Z" transform="translate(-7.27 -9.59)"/><path class="cls-3" d="M26.81,46.93a29.4,29.4,0,0,0-3.39-.69,35.46,35.46,0,0,0-5.23-.37l-3.46,3.92s19.36-2.25,27.33,9.79C42.06,59.58,38.91,50.14,26.81,46.93Z" transform="translate(-7.27 -9.59)"/><polygon class="cls-1" points="35.53 7.25 36.12 9.07 38.04 9.07 36.48 10.19 37.08 12.01 35.53 10.88 33.98 12.01 34.58 10.19 33.03 9.07 34.94 9.07 35.53 7.25 35.53 7.25"/><polygon class="cls-1" points="41.38 8.54 41.85 10.01 43.4 10 42.15 10.91 42.63 12.37 41.38 11.46 40.13 12.37 40.61 10.91 39.36 10 40.91 10.01 41.38 8.54 41.38 8.54"/><polygon class="cls-1" points="30.02 8.54 29.55 10.01 28.01 10 29.26 10.91 28.78 12.37 30.02 11.46 31.27 12.37 30.79 10.91 32.04 10 30.5 10.01 30.02 8.54 30.02 8.54"/><polygon class="cls-1" points="46.53 10.95 46.91 12.14 48.17 12.14 47.15 12.88 47.55 14.07 46.53 13.33 45.51 14.07 45.9 12.88 44.88 12.14 46.14 12.14 46.53 10.95 46.53 10.95"/><polygon class="cls-1" points="24.87 10.95 24.49 12.14 23.23 12.14 24.25 12.88 23.86 14.07 24.87 13.33 25.89 14.07 25.5 12.88 26.52 12.14 25.26 12.14 24.87 10.95 24.87 10.95"/><text class="cls-4" transform="translate(72.96 42.86)"><tspan class="cls-5">D</tspan><tspan class="cls-6" x="25.31" y="0">a</tspan><tspan class="cls-7" x="41.81" y="0">v</tspan><tspan x="58.75" y="0">a</tspan><tspan class="cls-2" x="77.28" y="0" xml:space="preserve"> Dile</tspan><tspan class="cls-8" x="147.61" y="0">k</tspan><tspan class="cls-2" x="167.69" y="0">รง</tspan><tspan class="cls-9" x="183.99" y="0">e</tspan><tspan class="cls-2" x="201.06" y="0">si</tspan></text></svg>