<svg xmlns="http://www.w3.org/2000/svg" width="46" height="34" viewBox="0 0 46 34"><g fill="none"><rect width="45" height="33" x=".5" y=".5" fill="#F5F2CA" stroke="#D4D09D" rx="4"></rect><path fill="#D4D09D" d="M16 1v3.7l6.373 6.154L29 4.456V1h1v3h15v1H29.763l.055.057L23 11.64V14h-7.5v7H31v-8l.005-.164c.081-1.25 1.08-2.25 2.33-2.33l.165-.006h13v1h-13l-.144.007c-.714.068-1.281.635-1.35 1.349L32 13v9l.007.144c.068.714.635 1.281 1.349 1.35l.144.006h13v1h-13l-.164-.005c-1.25-.081-2.25-1.08-2.33-2.33L31 22h-8v1.359l6.818 6.584-.056.057H30v4h-1v-3.457l-6.627-6.398L16 30.299V34h-1v-3.984l-.07-.073L22 23.115V22h-6.5c0 1.325-1.032 2.41-2.336 2.495L13 24.5H0v-1h13c.78 0 1.42-.595 1.493-1.356L14.5 22v-9c0-.78-.595-1.42-1.356-1.493L13 11.5H0v-1h13c1.325 0 2.41 1.032 2.495 2.336L15.5 13H22v-1.116l-7.07-6.827.053-.057H0V4h15V1h1z"></path></g></svg>